<svg width="24" height="24" viewBox="0 0 24 24" fill="none" xmlns="http://www.w3.org/2000/svg">
  <!-- Chữ C -->
  <path fill-rule="evenodd" clip-rule="evenodd"
    d="M11 10.5C11 8.4 10.4 6.7 9.2 5.4C8 4.1 6.4 3.45 4.4 3.45C3.7 3.45 3.1 3.55 2.6 3.75C2.1 3.95 1.7 4.2 1.4 4.5C1.4 4.5 1.4 7.5 1.4 7.5C1.7 7.2 2.1 6.95 2.6 6.75C3.1 6.55 3.7 6.45 4.4 6.45C5.6 6.45 6.55 6.9 7.25 7.8C7.95 8.7 8.3 9.5 8.3 10.5C8.3 11.5 7.95 12.3 7.25 13.2C6.55 14.1 5.6 14.55 4.4 14.55C3.7 14.55 3.1 14.45 2.6 14.25C2.1 14.05 1.7 13.8 1.4 13.5C1.4 13.5 1.4 16.5 1.4 16.5C1.7 16.8 2.1 17.05 2.6 17.25C3.1 17.45 3.7 17.55 4.4 17.55C6.4 17.55 8 16.9 9.2 15.6C10.4 14.3 11 12.6 11 10.5Z"
    fill="#09090B"
    transform="scale(-1, 1) translate(-13, 0)"/>

  <!-- Chữ O -->
  <path fill-rule="evenodd" clip-rule="evenodd"
    d="M22 10.5C22 8.9 21.5 7.6 20.5 6.5C19.5 5.4 18.2 4.9 16.8 4.9C15.4 4.9 14.1 5.4 13.1 6.5C12.1 7.6 11.6 8.9 11.6 10.5C11.6 12.1 12.1 13.4 13.1 14.5C14.1 15.6 15.4 16.1 16.8 16.1C18.2 16.1 19.5 15.6 20.5 14.5C21.5 13.4 22 12.1 22 10.5ZM16.8 7.5C17.6 7.5 18.3 7.9 18.9 8.6C19.5 9.3 19.8 9.9 19.8 10.9C19.8 11.9 19.5 12.7 18.9 13.4C18.3 14.1 17.6 14.5 16.8 14.5C16 14.5 15.3 14.1 14.7 13.4C14.1 12.7 13.8 11.9 13.8 10.9C13.8 9.9 14.1 9.3 14.7 8.6C15.3 7.9 16 7.5 16.8 7.5Z"
    fill="#09090B"/>
</svg>